<?xml version="1.0" standalone="no"?>
<!DOCTYPE svg PUBLIC "-//W3C//DTD SVG 20010904//EN"
 "http://www.w3.org/TR/2001/REC-SVG-20010904/DTD/svg10.dtd">
<svg version="1.0" xmlns="http://www.w3.org/2000/svg"
 width="131.000000pt" height="131.000000pt" viewBox="0 0 131.000000 131.000000"
 preserveAspectRatio="xMidYMid meet">
<metadata>
Created by potrace 1.14, written by Peter Selinger 2001-2017
</metadata>
<g transform="translate(0.000000,131.000000) scale(0.100000,-0.100000)"
fill="#000000" stroke="none">
<path d="M636 1252 c-3 -5 -73 -55 -155 -113 -82 -57 -155 -114 -160 -127 -17
-37 -13 -69 13 -99 18 -21 33 -28 63 -28 32 0 58 14 151 78 l113 78 37 -29
c75 -58 194 -132 212 -132 52 0 101 52 93 100 -6 40 -26 62 -104 115 -41 27
-111 76 -156 107 -82 58 -97 65 -107 50z"/>
<path d="M551 898 c-113 -77 -154 -88 -217 -55 -30 15 -32 15 -76 -16 -56 -39
-80 -76 -80 -124 0 -62 60 -117 124 -115 30 1 42 8 231 141 65 45 124 80 131
78 7 -3 75 -49 152 -103 154 -108 193 -127 235 -112 30 10 78 54 80 72 1 6 3
22 5 36 5 42 -17 80 -70 120 -48 37 -51 38 -78 24 -33 -17 -94 -20 -130 -6
-14 6 -64 38 -111 71 -47 34 -87 61 -89 60 -2 0 -50 -32 -107 -71z"/>
<path d="M530 658 c-165 -117 -184 -127 -248 -124 -28 2 -58 9 -67 16 -12 10
-23 6 -61 -21 -82 -59 -108 -118 -80 -181 23 -55 59 -81 118 -86 l53 -4 202
141 c111 78 206 141 211 141 10 0 204 -132 246 -167 10 -8 53 -37 94 -64 59
-39 83 -49 116 -49 77 0 136 58 136 135 0 51 -26 91 -83 130 -46 31 -51 32
-81 20 -50 -21 -122 -12 -170 22 -22 16 -90 63 -151 104 l-110 76 -125 -89z"/>
<path d="M560 273 c-126 -181 -125 -180 -106 -202 14 -16 37 -18 194 -18 97 0
187 3 200 8 26 10 27 33 4 70 -26 41 -193 279 -195 279 -1 -1 -45 -62 -97
-137z"/>
</g>
</svg>
